<?xml version="1.0" standalone="no"?>
<!DOCTYPE svg PUBLIC "-//W3C//DTD SVG 20010904//EN"
 "http://www.w3.org/TR/2001/REC-SVG-20010904/DTD/svg10.dtd">
<svg version="1.0" xmlns="http://www.w3.org/2000/svg"
 width="31.000000pt" height="36.000000pt" viewBox="0 0 31.000000 36.000000"
 preserveAspectRatio="xMidYMid meet">

<g transform="translate(0.000000,36.000000) scale(0.100000,-0.100000)"
fill="#000000" stroke="none">
<path d="M72 308 l-72 -42 0 -86 c0 -84 1 -86 29 -103 16 -9 32 -17 35 -17 3
0 6 45 6 99 0 81 3 100 16 105 23 9 24 8 24 -24 0 -28 3 -30 35 -30 l35 0 0
70 c0 86 -5 87 -108 28z"/>
<path d="M220 225 l0 -85 45 0 45 0 0 65 0 65 -40 20 c-21 11 -42 20 -45 20
-3 0 -5 -38 -5 -85z"/>
<path d="M110 100 c0 -65 2 -71 24 -81 21 -10 35 -5 103 32 l78 44 -67 3 -68
3 0 34 c0 33 -2 35 -35 35 l-35 0 0 -70z"/>
</g>
</svg>
